<?xml version="1.0" encoding="utf-8"?>
<!-- Generator: Adobe Illustrator 26.0.3, SVG Export Plug-In . SVG Version: 6.00 Build 0)  -->
<svg version="1.0" id="Layer_1" xmlns="http://www.w3.org/2000/svg" xmlns:xlink="http://www.w3.org/1999/xlink" x="0px" y="0px"
	 viewBox="0 0 1424 978" style="enable-background:new 0 0 1424 978;" xml:space="preserve">
<style type="text/css">
	.st0{fill:#52A335;}
	.st1{fill:#285D1A;}
	.st2{fill:#86D264;}
	.st3{fill:#2A621D;}
</style>
<path class="st0" d="M711.6,849.9c-119,0-237.9,0-356.9,0.1c-3,0-3.7-0.7-3.7-3.7c0.1-238.2,0.1-476.4,0-714.6c0-3,0.7-3.7,3.7-3.7
	c238.2,0.1,476.4,0.1,714.6,0c3,0,3.7,0.7,3.7,3.7c-0.1,238.2-0.1,476.4,0,714.6c0,3-0.7,3.7-3.7,3.7
	C950.1,849.9,830.8,849.9,711.6,849.9z M781,718.5c0,2.3,0.2,4.5,0,6.8c-0.2,3.2,1,4.5,4.3,4.4c10-0.2,20-0.1,30-0.1
	c10.7,0,21.3,0,32,0c1.8,0,4,0.3,4-2.5s0.6-5.8-0.5-8.7c0-0.2,0-0.5,0-0.7c0-2.4,0.2-4.8,0.2-7.2c0-62.9,0-125.8,0-188.7
	c0.8-1.8,0.5-3.7,0.5-5.5c0-6.5,0-6.5-6.6-6.5l-63.7-0.1L781,452l0.3-0.8c2.5,0.1,5.1,0.2,7.6,0.2h119.9c10.6,0,10.6,0,10.8-10.4
	c0-0.3,0-0.5,0-0.8c0-1.3,0.1-2.7,0.1-4c0-43.1,0-86.3-0.1-129.4c0-5.4,0-5.4-5.6-5.4H790.3c-2,0-4,0.1-6,0
	c-2.3-0.1-3.5,0.8-3.4,3.3c0.1,3.2,0.1,6.4,0.2,9.6v125l-5,0.8H647.8l-5-0.8c0-41.9,0-83.8,0-125.8c0.1-2.7,0-5.3,0.3-8
	c0.3-3.1-1.1-4.2-4.2-4.2c-43.5,0.1-87.1,0.1-130.6,0c-3.6,0-4.1,1.6-4.1,4.6c0.1,19.2,0,38.5,0,57.7c0,25.5,0,51,0.1,76.5
	c0,1.6,0.1,3.2,0.1,4.8c0,6.4,0,6.4,6.4,6.4c40.8,0,81.6,0,122.4,0c3.2,0,6.4-0.1,9.6-0.2l0.3,0.9c-0.1,19.2-0.1,38.4-0.2,57.6
	l-60.5,0.1c-10.8,0-10.8,0-9.7,10.9c0.1,0.4,0.2,0.8,0.3,1.1c0,11,0,21.9,0,32.9c0,54.4,0,108.7,0.1,163.1c-0.1,0.2-0.1,0.5-0.2,0.7
	c-0.1,1.8-0.3,3.7-0.3,5.6c0,5.5,0,5.5,5.5,5.5h53.6c11.3,0,11.3,0,11.2-11.4l0.3-2.4v-6.9c-0.5-1.1-0.5-2.4,0-3.5
	c0.1-13.2,0.1-26.4,0.2-39.7c0-5.8,0.1-5.9,5.8-5.9c11.5,0,23,0,34.5,0l97.4,0.1c0,18.9,0.1,37.8,0.1,56.8L781,718.5z"/>
<path d="M851,521.8c0,62.9,0,125.8,0,188.7c0,2.4-0.1,4.8-0.2,7.2l-1,0.4h-67.2l-1.5-1.4c0-18.9-0.1-37.8-0.1-56.8
	c0.9-3.7,0.3-7.4,0.3-11.1c-0.4-1.1-1.2-1.1-2.2-0.7H644.8c-1-0.4-1.8-0.3-2.2,0.8c0.8,18.8,0.3,37.7,0.6,56.5
	c-0.5,1.1-0.5,2.4,0,3.5v6.9c-0.1,0.8-0.2,1.6-0.3,2.4l-68.8,0.1l-1-0.5c0-54.4,0-108.7-0.1-163.1c0-11,0-21.9,0-32.9
	c19.6-0.1,39.2,0,58.8-0.3c12.6-0.2,11.4,2.9,11-11.9c0.1-19.2,0.1-38.4,0.2-57.6c1.3-0.1,2.7-0.2,4-0.2h130.1c1.3,0,2.7,0.1,4,0.2
	l0.2,57.7c0,0.3-0.1,0.5-0.1,0.8c-0.2,13.4-1.5,11,10.3,11.1C811.3,521.8,831.2,521.8,851,521.8z"/>
<path d="M642.8,313.5c0,41.9,0,83.8,0,125.8l-0.6,0.7H505.1c-0.1-1.5-0.2-2.9-0.2-4.4V319c0-5.8,0-5.8,5.7-5.8H638
	C639.6,313.3,641.2,313.4,642.8,313.5z"/>
<path d="M781.1,439.3v-125c1.5-1.3,3.3-1,5-1c42.5,0,85,0,127.5,0c5.4,0,5.5,0,5.5,5.7c0,34.3,0,68.7,0,103c0,6-0.1,12-0.2,18H781.8
	L781.1,439.3z"/>
<path class="st1" d="M918.9,440c0.1-6,0.2-12,0.2-18c0-34.4,0-68.7,0-103c0-5.6,0-5.7-5.5-5.7c-42.5,0-85,0-127.5,0
	c-1.7,0-3.5-0.3-5,1c-0.1-3.2-0.1-6.4-0.2-9.6c-0.1-2.4,1.1-3.3,3.4-3.3c2,0.1,4,0,6,0h123.8c5.6,0,5.6,0,5.6,5.4
	c0,43.1,0,86.3,0.1,129.4c0,1.3-0.1,2.7-0.1,4L918.9,440z"/>
<path class="st1" d="M642.8,313.5c-1.6-0.1-3.2-0.2-4.8-0.2H510.6c-5.7,0-5.7,0-5.7,5.8v116.6c0,1.5,0.1,2.9,0.2,4.4l-0.8,0.2
	c0-25.5,0-51-0.1-76.5c0-19.2,0.1-38.5,0-57.7c0-3,0.5-4.7,4.1-4.6c43.5,0.1,87.1,0.1,130.6,0c3.1,0,4.4,1,4.2,4.2
	C642.9,308.2,642.9,310.9,642.8,313.5z"/>
<path class="st2" d="M643.2,705.4c-0.3-18.8,0.2-37.7-0.6-56.5l2.2-0.8h134.3l2.2,0.7c0,3.7,0.5,7.4-0.4,11.1l-97.3-0.1
	c-11.5,0-23,0-34.5,0c-5.6,0-5.7,0.1-5.8,5.9C643.4,679,643.3,692.2,643.2,705.4z"/>
<path class="st2" d="M504.3,440.2l0.8-0.2h137.2c0.9,0.9,0.5,2.2,0.8,3.3c0,2.4,0,4.8,0,7.2c-0.1,0.2-0.2,0.5-0.4,0.7
	c-3.2,0.1-6.4,0.2-9.6,0.2c-40.8,0-81.6,0-122.4,0c-6.3,0-6.3,0-6.4-6.4C504.3,443.4,504.3,441.8,504.3,440.2z"/>
<path class="st2" d="M918.9,440l0.8,0.2c0,0.3,0,0.5,0,0.8c-0.2,10.4-0.2,10.4-10.8,10.4H789c-2.5,0-5.1-0.1-7.6-0.2
	c-0.1-0.2-0.2-0.5-0.3-0.7c0.3-2.4,0.3-4.8,0-7.2l0.7-3.3L918.9,440z"/>
<path class="st3" d="M781.1,443.3c0.3,2.4,0.3,4.8,0,7.2h-138c0-2.4,0-4.8,0-7.2c2.3,0,3.6-1.5,4.8-3.2h128.3
	C777.2,441.8,779,443,781.1,443.3z"/>
<path class="st3" d="M642.8,509.7c0.4,14.7,1.6,11.7-11,11.9c-19.6,0.2-39.2,0.2-58.8,0.3c-0.2-0.4-0.3-0.7-0.3-1.1
	c-1.2-10.9-1.2-10.9,9.7-10.9L642.8,509.7z"/>
<path class="st3" d="M851,521.8c-19.9-0.1-39.7,0-59.6-0.3c-11.8-0.1-10.5,2.4-10.3-11.1c0-0.3,0-0.5,0.1-0.8l63.7,0.1
	c6.6,0,6.6,0,6.6,6.5C851.5,518.1,851.8,520,851,521.8z"/>
<path class="st2" d="M574.1,718.3l68.8-0.1c0,11.4,0,11.4-11.2,11.4h-53.6c-5.5,0-5.5,0-5.5-5.5c0-1.9,0.2-3.7,0.3-5.6L574.1,718.3z
	"/>
<path class="st2" d="M782.6,718.1h67.2l1,0.3c1.1,2.8,0.5,5.8,0.5,8.7s-2.2,2.5-4,2.5c-10.7,0-21.3,0-32,0c-10,0-20-0.1-30,0.1
	c-3.4,0.1-4.5-1.2-4.3-4.4c0.2-2.2,0-4.5,0-6.8L782.6,718.1z"/>
<path class="st1" d="M643.1,450.5h138c0.1,0.2,0.2,0.5,0.3,0.7c-0.1,0.3-0.2,0.6-0.3,0.8c-1.3-0.1-2.7-0.2-4-0.2H647
	c-1.3,0-2.7,0.1-4,0.2l-0.3-0.9C642.8,451,642.9,450.7,643.1,450.5z"/>
<path class="st1" d="M647.8,440.1c-1.1,1.7-2.5,3.2-4.8,3.2c-0.4-1.1,0.1-2.3-0.8-3.3l0.6-0.7L647.8,440.1z"/>
<path class="st1" d="M781.1,443.3c-2-0.3-3.8-1.5-4.9-3.2l5-0.8l0.6,0.8C781.5,441.1,781.3,442.2,781.1,443.3z"/>
<path class="st3" d="M782.6,718.1l-1.7,0.3c0-0.6,0.1-1.2,0.2-1.8L782.6,718.1z"/>
<path class="st3" d="M574.1,718.3l-1.2,0.2c0-0.2,0.1-0.5,0.2-0.7L574.1,718.3z"/>
<path class="st3" d="M850.8,718.4l-1-0.3l1-0.4C850.9,717.9,850.9,718.2,850.8,718.4z"/>
<path class="st3" d="M644.8,648.1l-2.2,0.8C643,647.8,643.9,647.7,644.8,648.1z"/>
<path class="st3" d="M781.3,648.9l-2.2-0.7C780.1,647.7,780.9,647.7,781.3,648.9z"/>
</svg>
